<svg xmlns="http://www.w3.org/2000/svg" viewBox="0 0 93.12 40.36"><defs><style>.cls-1,.cls-2{fill:#fff;}.cls-1{stroke:#1d1d1b;stroke-miterlimit:10;stroke-width:0.25px;}</style></defs><g id="Capa_2" data-name="Capa 2"><g id="Capa_1-2" data-name="Capa 1"><path class="cls-1" d="M8.91,16.72h5.92a29.4,29.4,0,0,0,6,15.18h-18A29.11,29.11,0,0,0,7,24.78,30.75,30.75,0,0,0,8.91,16.72Z"/><path class="cls-1" d="M23.7,40.24H.14c0-1.4-.25-2.82.72-4a2.45,2.45,0,0,1,2-1H21a2.84,2.84,0,0,1,2.72,2.9C23.74,38.8,23.7,39.5,23.7,40.24Z"/><path class="cls-1" d="M11.83,34.66H3a1.06,1.06,0,0,1-1.12-1.29,1,1,0,0,1,.88-1h18a1.12,1.12,0,0,1,1,1.65,1,1,0,0,1-1.05.61H11.83Z"/><path class="cls-1" d="M11.88,13.81H17.2a1.14,1.14,0,0,1,1.21,1.29,1.13,1.13,0,0,1-1.17,1.2c-1,0-1.92,0-2.88,0H6.56a1.24,1.24,0,0,1-1.08-1.9,1.13,1.13,0,0,1,1.13-.59Z"/><path class="cls-1" d="M7.33,8.36h9.06c.24,1.72.05,3.3-1.93,4.36a5.34,5.34,0,0,1-5.06.08C7.28,11.76,7.08,10.14,7.33,8.36Z"/><path class="cls-1" d="M7.31,4.37A3.3,3.3,0,0,1,9.39.73a5.32,5.32,0,0,1,4.91,0,3.4,3.4,0,0,1,2.12,3.65Z"/><path class="cls-1" d="M16.39,7.68H7.33V6.73h9.06Z"/><path class="cls-1" d="M16.4,6H7.34V5.09H16.4Z"/><path class="cls-2" d="M35.53,19.61l.06-2.09q0-6.23-1.5-8.64A4.59,4.59,0,0,0,30.2,6.34a4.66,4.66,0,0,0-3.68,2L26,8.12a6.81,6.81,0,0,1,5.17-2.77q6.69,0,6.69,11.56l3.41-4q3.11-3.64,3.11-4.56,0-.3-1-.3h-.86l.13-.49h4.59L47.12,8h-.89L36.64,19.41Z"/><path class="cls-2" d="M49.51,19.61a3.37,3.37,0,0,1-2.33-.82,2.63,2.63,0,0,1-.94-2.05,5.59,5.59,0,0,1,2.33-4.27,7.67,7.67,0,0,1,5.06-2,3.65,3.65,0,0,1,2.44.81,2.53,2.53,0,0,1,1,2,5.61,5.61,0,0,1-2.32,4.33A7.93,7.93,0,0,1,49.51,19.61Zm1.21-.7a3.49,3.49,0,0,0,2.78-1.53,5.61,5.61,0,0,0,1.19-3.55c0-1.77-.71-2.65-2.15-2.65a3.46,3.46,0,0,0-2.74,1.57,5.64,5.64,0,0,0-1.22,3.55C48.58,18,49.29,18.91,50.72,18.91Z"/><path class="cls-2" d="M66.26,17l-.2.75a7,7,0,0,1-4.18,1.88c-1,0-1.54-.4-1.54-1.21a5.93,5.93,0,0,1,.25-1.35l.73-2.79a8.25,8.25,0,0,0,.3-1.58.61.61,0,0,0-.69-.68,10,10,0,0,0-1.72.28l.13-.49,5.21-1.29-.81,2.57-1,4a6.08,6.08,0,0,0-.25,1.18c0,.35.21.52.63.52C63.78,18.74,64.84,18.16,66.26,17ZM62.35,9.11,63.06,8l3-1.48L65.15,8Z"/><path class="cls-2" d="M76.49,17.2l-.16.63a13.45,13.45,0,0,1-5.74,1.78,3.71,3.71,0,0,1-2.48-.79,2.55,2.55,0,0,1-.94-2.07,5.56,5.56,0,0,1,2.35-4.29,7.72,7.72,0,0,1,7.62-1.55L76.42,13h-.66l0-.13a2.35,2.35,0,0,0,.11-.55c0-.74-.66-1.11-2-1.11a3.93,3.93,0,0,0-3.13,1.51,5.76,5.76,0,0,0-1.24,3.79,1.91,1.91,0,0,0,2.15,2.17A10.54,10.54,0,0,0,76.49,17.2Z"/><path class="cls-2" d="M88.43,17.21l-.16.62a12.92,12.92,0,0,1-5.77,1.78,3.69,3.69,0,0,1-2.46-.8,2.57,2.57,0,0,1-.94-2.06,5.62,5.62,0,0,1,2.3-4.25,7.38,7.38,0,0,1,4.91-2,2.29,2.29,0,0,1,1.53.49,1.5,1.5,0,0,1,.59,1.24c0,1-.7,1.91-2.09,2.65a10.46,10.46,0,0,1-5,1.1l0,.37a2,2,0,0,0,2.29,2.34A10.83,10.83,0,0,0,88.43,17.21Zm-7.05-1.72a8.45,8.45,0,0,0,3.73-.92,2.32,2.32,0,0,0,1.34-2c0-.82-.4-1.23-1.18-1.23a3.44,3.44,0,0,0-2.48,1.28A5.28,5.28,0,0,0,81.38,15.49Z"/><path class="cls-2" d="M46.08,38.4a21,21,0,0,1-5.94,1,6.83,6.83,0,0,1-4.26-1.16A3.9,3.9,0,0,1,34.36,35a7.11,7.11,0,0,1,2.91-5.7,10.83,10.83,0,0,1,7-2.34,21.28,21.28,0,0,1,4.58.46L48,29.62h-.67A2.46,2.46,0,0,0,47.4,29c0-.46-.34-.84-1-1.13a6.72,6.72,0,0,0-2.63-.43,6.16,6.16,0,0,0-4.27,1.64,8.32,8.32,0,0,0-2,2.68,7,7,0,0,0-.77,3.05,3.35,3.35,0,0,0,1.21,2.73,5.08,5.08,0,0,0,3.32,1,15.79,15.79,0,0,0,5-.9Z"/><path class="cls-2" d="M48.65,39.22l.79-2.47,1.46-5.54a8.07,8.07,0,0,1,2.89-4.52A8.31,8.31,0,0,1,59,25.07a10.31,10.31,0,0,1,1.92.17l-1.46,1.15A6.73,6.73,0,0,0,57.29,26a3.29,3.29,0,0,0-2.54.93,8.79,8.79,0,0,0-1.54,3.53l-1.15,4.35h.17a12.37,12.37,0,0,1,3-3.3,5.38,5.38,0,0,1,3.12-1.25c1.17,0,1.76.49,1.76,1.46a4.63,4.63,0,0,1-.18,1.16l-1,3.91a6.52,6.52,0,0,0-.24,1.2q0,.51.63.51c.71,0,1.77-.59,3.18-1.76l-.19.74a7,7,0,0,1-4.19,1.89c-1,0-1.54-.41-1.54-1.21a6.7,6.7,0,0,1,.24-1.37l1.05-3.92a3.16,3.16,0,0,0,.12-.77.57.57,0,0,0-.64-.65c-1.35,0-3.24,1.62-5.65,4.85l-.77,2.87Z"/><path class="cls-2" d="M72.78,36.93l-.16.62a13.09,13.09,0,0,1-5.78,1.78,3.65,3.65,0,0,1-2.45-.8,2.58,2.58,0,0,1-1-2.06,5.69,5.69,0,0,1,2.3-4.26,7.46,7.46,0,0,1,4.92-2,2.33,2.33,0,0,1,1.53.48A1.55,1.55,0,0,1,72.78,32c0,1-.7,1.91-2.09,2.65a10.62,10.62,0,0,1-5,1.1v.36A2,2,0,0,0,68,38.4,10.92,10.92,0,0,0,72.78,36.93Zm-7.06-1.72a8.27,8.27,0,0,0,3.73-.93,2.3,2.3,0,0,0,1.35-2A1.07,1.07,0,0,0,69.61,31a3.44,3.44,0,0,0-2.47,1.28A5.2,5.2,0,0,0,65.72,35.21Z"/><path class="cls-2" d="M73.85,38.85l1.41-1.08a5.75,5.75,0,0,0,2.82.76,2.88,2.88,0,0,0,1.49-.35,1,1,0,0,0,.6-.86c0-.38-.4-.9-1.2-1.55L78,35c-1-.78-1.42-1.43-1.42-2A2.36,2.36,0,0,1,78,31.07a5.8,5.8,0,0,1,3.14-.85,8.58,8.58,0,0,1,2.17.31L82.8,32.3h-.68l0-.14a.43.43,0,0,0,0-.17c0-.72-.62-1.08-1.85-1.08s-2.08.42-2.08,1.25c0,.43.42,1,1.24,1.69l.87.73c1,.81,1.43,1.47,1.43,2,0,.71-.5,1.35-1.51,1.91a6.88,6.88,0,0,1-3.44.85A10.71,10.71,0,0,1,73.85,38.85Z"/><path class="cls-2" d="M83.7,38.85l1.41-1.08a5.74,5.74,0,0,0,2.81.76,2.86,2.86,0,0,0,1.49-.35,1,1,0,0,0,.61-.86c0-.38-.4-.9-1.21-1.55l-1-.81c-.94-.78-1.41-1.43-1.41-2a2.36,2.36,0,0,1,1.37-1.93A5.85,5.85,0,0,1,91,30.22a8.64,8.64,0,0,1,2.17.31l-.47,1.77H92l0-.14A.79.79,0,0,0,92,32c0-.72-.61-1.08-1.85-1.08s-2.07.42-2.07,1.25c0,.43.41,1,1.24,1.69l.87.73c1,.81,1.43,1.47,1.43,2,0,.71-.51,1.35-1.51,1.91a6.89,6.89,0,0,1-3.45.85A10.65,10.65,0,0,1,83.7,38.85Z"/></g></g></svg>